<svg width="512" height="512" xmlns="http://www.w3.org/2000/svg">

 <g>
  <title>background</title>
  <rect fill="none" id="canvas_background" height="514" width="514" y="-1" x="-1"/>
 </g>
 <g>
  <title>Layer 1</title>
  <g id="svg_1">
   <path id="svg_2" fill="#ffffff" d="m463.838989,177.897003c0,-91.111 -59.708984,-117.824997 -59.708984,-117.824997c-58.584015,-26.902 -214.185013,-26.622002 -272.206009,0c0,0 -59.709,26.712997 -59.709,117.824997c0,108.450989 -6.188004,243.14798 98.983994,270.988007c37.960999,10.027008 70.582001,12.184998 96.827011,10.684998c47.617004,-2.623993 74.330994,-16.96701 74.330994,-16.96701l-1.592987,-34.588989c0,0 -34.026001,10.687988 -72.269012,9.468018c-37.869995,-1.313019 -77.800995,-4.124023 -83.987991,-50.616028c-0.563004,-4.123993 -0.843002,-8.435974 -0.843002,-13.028992c80.237,19.588989 148.661011,8.531006 167.503998,6.279999c52.585999,-6.279999 98.421997,-38.712982 104.233002,-68.333008c9.188995,-46.679993 8.437988,-113.886993 8.437988,-113.886993l0,0z"/>
   <path id="svg_3" fill="#ffffff" d="m393.442993,294l-43.679993,0l0,-105.792999c0,-46.585999 -59.992004,-48.367004 -59.992004,6.468002l0,58.584l-43.397003,0l0,-58.584c0,-54.835007 -59.990997,-53.054001 -59.990997,-6.468002l0,105.792999l-43.772995,0c0,-114.44899 -4.874008,-137.382004 17.246994,-162.783997c24.276993,-27.089996 74.800995,-28.869995 97.296997,5.718002l10.872986,18.278l10.873016,-18.278c22.591003,-34.776993 73.207001,-32.62001 97.29599,-5.718002c22.216003,25.589996 17.247009,48.427994 17.247009,162.783997l0,0z"/>
  </g>
  <g id="Layer_1"/>
  <g id="svg_13">
   <g transform="matrix(0.95923, 0, 0, 0.962674, -709.723, -748.245)" id="svg_9">
    <g id="svg_11">
     <path fill="#000000" stroke="#fffcfc" id="svg_12" d="m1225.854736,962.700317c0,-95.137024 -62.346924,-123.030029 -62.346924,-123.030029c-61.171875,-28.090942 -223.647888,-27.797974 -284.231873,0c0,0 -62.347046,27.894043 -62.347046,123.030029c0,113.243042 -6.459961,253.890015 103.357056,282.960083c39.639038,10.469971 73.699951,12.721924 101.10498,11.155884c49.72113,-2.73999 77.614929,-17.716919 77.614929,-17.716919l-1.661865,-36.116943c0,0 -35.531006,11.159912 -75.463074,9.885986c-39.542969,-1.369141 -81.238037,-4.30603 -87.697998,-52.852051c-0.588013,-4.306885 -0.880005,-8.809082 -0.880005,-13.604004c83.781982,20.454102 155.229065,8.906982 174.904114,6.558105c54.907959,-6.558105 102.769775,-40.423096 108.837891,-71.353027c9.593994,-48.73999 8.809814,-118.917114 8.809814,-118.917114l0,0zm-73.504883,122.540161l-45.609863,0l0,-111.77417c0,-48.643982 -62.644043,-50.503967 -62.644043,6.754028l0,61.172974l-45.314026,0l0,-61.174011c0,-57.257996 -62.640991,-55.39801 -62.640991,-6.753967l0,111.774048l-45.707031,0c0,-119.505066 -5.088989,-144.759033 18.009033,-171.282043c25.349976,-28.287048 78.10498,-30.145996 101.594971,5.969971l11.354004,19.085999l11.352966,-19.085999c23.589111,-36.312988 76.441162,-34.060974 101.594971,-5.969971c23.197998,26.719971 18.01001,51.875 18.01001,171.283142l0,0z"/>
    </g>
   </g>
   <g transform="matrix(0.95923, 0, 0, 0.962674, -709.723, -748.245)" id="svg_8"/>
  </g>
 </g>
</svg>