<svg width="32" height="32" xmlns="http://www.w3.org/2000/svg">

 <g>
  <title>background</title>
  <rect fill="none" id="canvas_background" height="402" width="582" y="-1" x="-1"/>
 </g>
 <g>
  <title>Layer 1</title>
  <g id="svg_2">
   <path stroke="#000000" id="svg_3" fill="#000000" d="m16,0c-8.837,0 -16,7.163 -16,16c0,8.836 7.163,16 16,16s16,-7.164 16,-16c0,-8.837 -7.163,-16 -16,-16z"/>
  </g>
  <g id="_x33__stroke">
   <g id="Feedly_1_">
    <path stroke="#ffffff" id="Feedly" fill="#FFFFFF" d="m11.236012,17.675995c-0.489,0.577 -1.35,0.424999 -2.011999,0.323002c-0.583,-0.463001 -1.117001,-1 -1.588001,-1.573002c-0.272999,-0.318001 0.077,-0.647999 0.292,-0.872999c2.964001,-2.923 5.917001,-5.858 8.874999,-8.786001c0.397001,-0.383999 0.757,-0.809999 1.204,-1.137999c0.384001,-0.191 0.681,0.220999 0.937,0.439999c0.544001,0.575001 1.16,1.084002 1.659,1.699001c0.257,0.304998 -0.025002,0.657999 -0.251001,0.875999c-3.040998,3.008001 -6.083999,6.015001 -9.115998,9.032m9.325999,6.925999c-0.473,0.527 -0.966,1.044003 -1.521,1.484001c-0.51,0.121002 -1.052,0.093002 -1.566999,0.019001c-0.496,-0.248001 -0.831001,-0.725002 -1.237001,-1.093002c-0.288999,-0.278999 -0.740998,-0.696999 -0.368999,-1.098999c0.627999,-0.691998 1.299998,-1.351997 1.995,-1.980999c0.257999,-0.216 0.644999,-0.108002 0.853998,0.125999c0.594002,0.569 1.179001,1.147999 1.752001,1.740002c0.226,0.198997 0.349001,0.574997 0.093,0.803997m-0.177,-7.889c-1.688,1.669003 -3.381001,3.337002 -5.058999,5.017002c-0.471001,0.571999 -1.3,0.390999 -1.946,0.338001c-0.623,-0.397003 -1.106999,-0.983002 -1.606999,-1.518002c-0.334,-0.313 -0.021999,-0.723 0.235001,-0.958c1.689999,-1.667 3.377998,-3.334999 5.058997,-5.011c0.306,-0.296 0.583,-0.636 0.954,-0.861c0.372,-0.157999 0.644001,0.217001 0.891001,0.427c0.560999,0.596001 1.202,1.120998 1.713999,1.758999c0.226,0.287003 -0.035,0.605 -0.240999,0.806999"/>
   </g>
  </g>
 </g>
</svg>