<?xml version="1.0" ?><svg height="60px" version="1.1" viewBox="0 0 60 60" width="60px" xmlns="http://www.w3.org/2000/svg" xmlns:sketch="http://www.bohemiancoding.com/sketch/ns" xmlns:xlink="http://www.w3.org/1999/xlink"><title/><defs/><g fill="none" fill-rule="evenodd" id="black" stroke="none" stroke-width="1"><g id="rss"><path d="M30,60 C46.5685433,60 60,46.5685433 60,30 C60,13.4314567 46.5685433,0 30,0 C13.4314567,0 0,13.4314567 0,30 C0,46.5685433 13.4314567,60 30,60 Z" fill="#000000"/><path d="M22.4358974,24.2307692 C21.8692308,24.2307692 21.3158974,24.2774359 20.7692308,24.3457692 L20.7692308,27.7141026 C21.3125641,27.6224359 21.8658974,27.5641026 22.4358974,27.5641026 C27.9592308,27.5641026 32.4358974,32.0424359 32.4358974,37.5641026 C32.4358974,38.1341026 32.3775641,38.6874359 32.2858974,39.2307692 L35.6542308,39.2307692 C35.7225641,38.6841026 35.7692308,38.1307692 35.7692308,37.5641026 C35.7692308,30.2007692 29.7992308,24.2307692 22.4358974,24.2307692 L22.4358974,24.2307692 Z M22.4556213,17.3076923 C21.8856213,17.3076923 21.3257396,17.3464793 20.7692308,17.3920118 L20.7692308,20.7647929 C21.3240533,20.709142 21.8856213,20.6804734 22.4556213,20.6804734 C31.7695562,20.6804734 39.3195266,28.2321302 39.3195266,37.5443787 C39.3195266,38.1143787 39.2891716,38.6759467 39.2335207,39.2307692 L42.6063018,39.2307692 C42.6535207,38.6742604 42.6923077,38.1143787 42.6923077,37.5443787 C42.6923077,26.3686686 33.6313314,17.3076923 22.4556213,17.3076923 L22.4556213,17.3076923 Z M22.5,32.3076923 C19.6338462,32.3076923 17.3076923,34.6321154 17.3076923,37.5 C17.3076923,40.3678846 19.6338462,42.6923077 22.5,42.6923077 C25.3661538,42.6923077 27.6923077,40.3678846 27.6923077,37.5 C27.6923077,34.6321154 25.3661538,32.3076923 22.5,32.3076923 L22.5,32.3076923 Z" fill="#FFFFFF"/></g></g></svg>